<svg width="50" height="50" viewBox="0 0 50 50" fill="none" xmlns="http://www.w3.org/2000/svg">
<g filter="url(#filter0_i_313_822)">
<path d="M8 23.2904V27.7096H34.5152L22.3624 39.8624L25.5 43L43 25.5L25.5 8L22.3624 11.1376L34.5152 23.2904H8Z" fill="url(#paint0_linear_313_822)"/>
<path d="M8 23.2904V27.7096H34.5152L22.3624 39.8624L25.5 43L43 25.5L25.5 8L22.3624 11.1376L34.5152 23.2904H8Z" fill="url(#paint1_radial_313_822)" fill-opacity="0.2"/>
<path d="M8 23.2904V27.7096H34.5152L22.3624 39.8624L25.5 43L43 25.5L25.5 8L22.3624 11.1376L34.5152 23.2904H8Z" fill="#ECB647" style="mix-blend-mode:color"/>
</g>
<defs>
<filter id="filter0_i_313_822" x="8" y="8" width="35" height="36.5" filterUnits="userSpaceOnUse" color-interpolation-filters="sRGB">
<feFlood flood-opacity="0" result="BackgroundImageFix"/>
<feBlend mode="normal" in="SourceGraphic" in2="BackgroundImageFix" result="shape"/>
<feColorMatrix in="SourceAlpha" type="matrix" values="0 0 0 0 0 0 0 0 0 0 0 0 0 0 0 0 0 0 127 0" result="hardAlpha"/>
<feOffset dy="3"/>
<feGaussianBlur stdDeviation="0.75"/>
<feComposite in2="hardAlpha" operator="arithmetic" k2="-1" k3="1"/>
<feColorMatrix type="matrix" values="0 0 0 0 1 0 0 0 0 1 0 0 0 0 1 0 0 0 0.4 0"/>
<feBlend mode="normal" in2="shape" result="effect1_innerShadow_313_822"/>
</filter>
<linearGradient id="paint0_linear_313_822" x1="41.3173" y1="43" x2="7.04941" y2="41.6261" gradientUnits="userSpaceOnUse">
<stop stop-color="#657073"/>
<stop offset="0.099232" stop-color="#9EA1A1"/>
<stop offset="0.384706" stop-color="#A3AAA9"/>
<stop offset="0.481533" stop-color="#8A979A"/>
<stop offset="0.783332" stop-color="#727D81"/>
<stop offset="0.897573" stop-color="#848B8A"/>
<stop offset="1" stop-color="#8E9192"/>
</linearGradient>
<radialGradient id="paint1_radial_313_822" cx="0" cy="0" r="1" gradientUnits="userSpaceOnUse" gradientTransform="translate(39.9038 -13.875) rotate(111.47) scale(36.0428 121.885)">
<stop stop-color="white"/>
<stop offset="1" stop-color="white" stop-opacity="0"/>
</radialGradient>
</defs>
</svg>
