<svg width="30" height="30" viewBox="0 0 30 30" fill="none" xmlns="http://www.w3.org/2000/svg">
<g filter="url(#filter0_iiii_313_653)">
<path d="M25 5H5C3.625 5 2.5125 6.125 2.5125 7.5L2.5 22.5C2.5 23.875 3.625 25 5 25H25C26.375 25 27.5 23.875 27.5 22.5V7.5C27.5 6.125 26.375 5 25 5ZM25 10L15 16.25L5 10V7.5L15 13.75L25 7.5V10Z" fill="url(#paint0_linear_313_653)"/>
<path d="M25 5H5C3.625 5 2.5125 6.125 2.5125 7.5L2.5 22.5C2.5 23.875 3.625 25 5 25H25C26.375 25 27.5 23.875 27.5 22.5V7.5C27.5 6.125 26.375 5 25 5ZM25 10L15 16.25L5 10V7.5L15 13.75L25 7.5V10Z" fill="url(#paint1_radial_313_653)" fill-opacity="0.2"/>
<path d="M25 5H5C3.625 5 2.5125 6.125 2.5125 7.5L2.5 22.5C2.5 23.875 3.625 25 5 25H25C26.375 25 27.5 23.875 27.5 22.5V7.5C27.5 6.125 26.375 5 25 5ZM25 10L15 16.25L5 10V7.5L15 13.75L25 7.5V10Z" fill="#ECB647" style="mix-blend-mode:color"/>
</g>
<defs>
<filter id="filter0_iiii_313_653" x="2" y="4.5" width="26" height="21" filterUnits="userSpaceOnUse" color-interpolation-filters="sRGB">
<feFlood flood-opacity="0" result="BackgroundImageFix"/>
<feBlend mode="normal" in="SourceGraphic" in2="BackgroundImageFix" result="shape"/>
<feColorMatrix in="SourceAlpha" type="matrix" values="0 0 0 0 0 0 0 0 0 0 0 0 0 0 0 0 0 0 127 0" result="hardAlpha"/>
<feOffset dy="1"/>
<feGaussianBlur stdDeviation="0.25"/>
<feComposite in2="hardAlpha" operator="arithmetic" k2="-1" k3="1"/>
<feColorMatrix type="matrix" values="0 0 0 0 1 0 0 0 0 1 0 0 0 0 1 0 0 0 0.4 0"/>
<feBlend mode="normal" in2="shape" result="effect1_innerShadow_313_653"/>
<feColorMatrix in="SourceAlpha" type="matrix" values="0 0 0 0 0 0 0 0 0 0 0 0 0 0 0 0 0 0 127 0" result="hardAlpha"/>
<feOffset dy="-1"/>
<feGaussianBlur stdDeviation="0.25"/>
<feComposite in2="hardAlpha" operator="arithmetic" k2="-1" k3="1"/>
<feColorMatrix type="matrix" values="0 0 0 0 0 0 0 0 0 0 0 0 0 0 0 0 0 0 0.5 0"/>
<feBlend mode="normal" in2="effect1_innerShadow_313_653" result="effect2_innerShadow_313_653"/>
<feColorMatrix in="SourceAlpha" type="matrix" values="0 0 0 0 0 0 0 0 0 0 0 0 0 0 0 0 0 0 127 0" result="hardAlpha"/>
<feOffset dx="-1"/>
<feGaussianBlur stdDeviation="0.25"/>
<feComposite in2="hardAlpha" operator="arithmetic" k2="-1" k3="1"/>
<feColorMatrix type="matrix" values="0 0 0 0 0 0 0 0 0 0 0 0 0 0 0 0 0 0 0.3 0"/>
<feBlend mode="normal" in2="effect2_innerShadow_313_653" result="effect3_innerShadow_313_653"/>
<feColorMatrix in="SourceAlpha" type="matrix" values="0 0 0 0 0 0 0 0 0 0 0 0 0 0 0 0 0 0 127 0" result="hardAlpha"/>
<feOffset dx="1"/>
<feGaussianBlur stdDeviation="0.25"/>
<feComposite in2="hardAlpha" operator="arithmetic" k2="-1" k3="1"/>
<feColorMatrix type="matrix" values="0 0 0 0 1 0 0 0 0 1 0 0 0 0 1 0 0 0 0.25 0"/>
<feBlend mode="normal" in2="effect3_innerShadow_313_653" result="effect4_innerShadow_313_653"/>
</filter>
<linearGradient id="paint0_linear_313_653" x1="3.70192" y1="25" x2="28.1569" y2="23.7744" gradientUnits="userSpaceOnUse">
<stop stop-color="#657073"/>
<stop offset="0.099232" stop-color="#9EA1A1"/>
<stop offset="0.384706" stop-color="#A3AAA9"/>
<stop offset="0.481533" stop-color="#8A979A"/>
<stop offset="0.783332" stop-color="#727D81"/>
<stop offset="0.897573" stop-color="#848B8A"/>
<stop offset="1" stop-color="#8E9192"/>
</linearGradient>
<radialGradient id="paint1_radial_313_653" cx="0" cy="0" r="1" gradientUnits="userSpaceOnUse" gradientTransform="translate(4.71154 -7.50001) rotate(63.8195) scale(21.3578 83.9548)">
<stop stop-color="white"/>
<stop offset="1" stop-color="white" stop-opacity="0"/>
</radialGradient>
</defs>
</svg>
