<svg width="30" height="30" viewBox="0 0 30 30" fill="none" xmlns="http://www.w3.org/2000/svg">
<g filter="url(#filter0_iiii_313_657)">
<path d="M15 2.5C10.1625 2.5 6.25 6.4125 6.25 11.25C6.25 17.8125 15 27.5 15 27.5C15 27.5 23.75 17.8125 23.75 11.25C23.75 6.4125 19.8375 2.5 15 2.5ZM15 14.375C14.1712 14.375 13.3763 14.0458 12.7903 13.4597C12.2042 12.8737 11.875 12.0788 11.875 11.25C11.875 10.4212 12.2042 9.62634 12.7903 9.04029C13.3763 8.45424 14.1712 8.125 15 8.125C15.8288 8.125 16.6237 8.45424 17.2097 9.04029C17.7958 9.62634 18.125 10.4212 18.125 11.25C18.125 12.0788 17.7958 12.8737 17.2097 13.4597C16.6237 14.0458 15.8288 14.375 15 14.375Z" fill="url(#paint0_linear_313_657)"/>
<path d="M15 2.5C10.1625 2.5 6.25 6.4125 6.25 11.25C6.25 17.8125 15 27.5 15 27.5C15 27.5 23.75 17.8125 23.75 11.25C23.75 6.4125 19.8375 2.5 15 2.5ZM15 14.375C14.1712 14.375 13.3763 14.0458 12.7903 13.4597C12.2042 12.8737 11.875 12.0788 11.875 11.25C11.875 10.4212 12.2042 9.62634 12.7903 9.04029C13.3763 8.45424 14.1712 8.125 15 8.125C15.8288 8.125 16.6237 8.45424 17.2097 9.04029C17.7958 9.62634 18.125 10.4212 18.125 11.25C18.125 12.0788 17.7958 12.8737 17.2097 13.4597C16.6237 14.0458 15.8288 14.375 15 14.375Z" fill="url(#paint1_radial_313_657)" fill-opacity="0.2"/>
<path d="M15 2.5C10.1625 2.5 6.25 6.4125 6.25 11.25C6.25 17.8125 15 27.5 15 27.5C15 27.5 23.75 17.8125 23.75 11.25C23.75 6.4125 19.8375 2.5 15 2.5ZM15 14.375C14.1712 14.375 13.3763 14.0458 12.7903 13.4597C12.2042 12.8737 11.875 12.0788 11.875 11.25C11.875 10.4212 12.2042 9.62634 12.7903 9.04029C13.3763 8.45424 14.1712 8.125 15 8.125C15.8288 8.125 16.6237 8.45424 17.2097 9.04029C17.7958 9.62634 18.125 10.4212 18.125 11.25C18.125 12.0788 17.7958 12.8737 17.2097 13.4597C16.6237 14.0458 15.8288 14.375 15 14.375Z" fill="#ECB647" style="mix-blend-mode:color"/>
</g>
<defs>
<filter id="filter0_iiii_313_657" x="5.75" y="2" width="18.5" height="26" filterUnits="userSpaceOnUse" color-interpolation-filters="sRGB">
<feFlood flood-opacity="0" result="BackgroundImageFix"/>
<feBlend mode="normal" in="SourceGraphic" in2="BackgroundImageFix" result="shape"/>
<feColorMatrix in="SourceAlpha" type="matrix" values="0 0 0 0 0 0 0 0 0 0 0 0 0 0 0 0 0 0 127 0" result="hardAlpha"/>
<feOffset dy="1"/>
<feGaussianBlur stdDeviation="0.25"/>
<feComposite in2="hardAlpha" operator="arithmetic" k2="-1" k3="1"/>
<feColorMatrix type="matrix" values="0 0 0 0 1 0 0 0 0 1 0 0 0 0 1 0 0 0 0.4 0"/>
<feBlend mode="normal" in2="shape" result="effect1_innerShadow_313_657"/>
<feColorMatrix in="SourceAlpha" type="matrix" values="0 0 0 0 0 0 0 0 0 0 0 0 0 0 0 0 0 0 127 0" result="hardAlpha"/>
<feOffset dy="-1"/>
<feGaussianBlur stdDeviation="0.25"/>
<feComposite in2="hardAlpha" operator="arithmetic" k2="-1" k3="1"/>
<feColorMatrix type="matrix" values="0 0 0 0 0 0 0 0 0 0 0 0 0 0 0 0 0 0 0.5 0"/>
<feBlend mode="normal" in2="effect1_innerShadow_313_657" result="effect2_innerShadow_313_657"/>
<feColorMatrix in="SourceAlpha" type="matrix" values="0 0 0 0 0 0 0 0 0 0 0 0 0 0 0 0 0 0 127 0" result="hardAlpha"/>
<feOffset dx="-1"/>
<feGaussianBlur stdDeviation="0.25"/>
<feComposite in2="hardAlpha" operator="arithmetic" k2="-1" k3="1"/>
<feColorMatrix type="matrix" values="0 0 0 0 0 0 0 0 0 0 0 0 0 0 0 0 0 0 0.3 0"/>
<feBlend mode="normal" in2="effect2_innerShadow_313_657" result="effect3_innerShadow_313_657"/>
<feColorMatrix in="SourceAlpha" type="matrix" values="0 0 0 0 0 0 0 0 0 0 0 0 0 0 0 0 0 0 127 0" result="hardAlpha"/>
<feOffset dx="1"/>
<feGaussianBlur stdDeviation="0.25"/>
<feComposite in2="hardAlpha" operator="arithmetic" k2="-1" k3="1"/>
<feColorMatrix type="matrix" values="0 0 0 0 1 0 0 0 0 1 0 0 0 0 1 0 0 0 0.25 0"/>
<feBlend mode="normal" in2="effect3_innerShadow_313_657" result="effect4_innerShadow_313_657"/>
</filter>
<linearGradient id="paint0_linear_313_657" x1="7.09135" y1="27.5" x2="24.2393" y2="27.0187" gradientUnits="userSpaceOnUse">
<stop stop-color="#657073"/>
<stop offset="0.099232" stop-color="#9EA1A1"/>
<stop offset="0.384706" stop-color="#A3AAA9"/>
<stop offset="0.481533" stop-color="#8A979A"/>
<stop offset="0.783332" stop-color="#727D81"/>
<stop offset="0.897573" stop-color="#848B8A"/>
<stop offset="1" stop-color="#8E9192"/>
</linearGradient>
<radialGradient id="paint1_radial_313_657" cx="0" cy="0" r="1" gradientUnits="userSpaceOnUse" gradientTransform="translate(7.79808 -13.125) rotate(74.6068) scale(24.8498 63.1375)">
<stop stop-color="white"/>
<stop offset="1" stop-color="white" stop-opacity="0"/>
</radialGradient>
</defs>
</svg>
