<svg width="30" height="30" viewBox="0 0 30 30" fill="none" xmlns="http://www.w3.org/2000/svg">
<g filter="url(#filter0_iiii_313_832)">
<path d="M8.275 13.4875C10.075 17.025 12.975 19.9125 16.5125 21.725L19.2625 18.975C19.6 18.6375 20.1 18.525 20.5375 18.675C21.9375 19.1375 23.45 19.3875 25 19.3875C25.6875 19.3875 26.25 19.95 26.25 20.6375V25C26.25 25.6875 25.6875 26.25 25 26.25C13.2625 26.25 3.75 16.7375 3.75 5C3.75 4.3125 4.3125 3.75 5 3.75H9.375C10.0625 3.75 10.625 4.3125 10.625 5C10.625 6.5625 10.875 8.0625 11.3375 9.4625C11.475 9.9 11.375 10.3875 11.025 10.7375L8.275 13.4875Z" fill="url(#paint0_linear_313_832)"/>
<path d="M8.275 13.4875C10.075 17.025 12.975 19.9125 16.5125 21.725L19.2625 18.975C19.6 18.6375 20.1 18.525 20.5375 18.675C21.9375 19.1375 23.45 19.3875 25 19.3875C25.6875 19.3875 26.25 19.95 26.25 20.6375V25C26.25 25.6875 25.6875 26.25 25 26.25C13.2625 26.25 3.75 16.7375 3.75 5C3.75 4.3125 4.3125 3.75 5 3.75H9.375C10.0625 3.75 10.625 4.3125 10.625 5C10.625 6.5625 10.875 8.0625 11.3375 9.4625C11.475 9.9 11.375 10.3875 11.025 10.7375L8.275 13.4875Z" fill="url(#paint1_radial_313_832)" fill-opacity="0.2"/>
<path d="M8.275 13.4875C10.075 17.025 12.975 19.9125 16.5125 21.725L19.2625 18.975C19.6 18.6375 20.1 18.525 20.5375 18.675C21.9375 19.1375 23.45 19.3875 25 19.3875C25.6875 19.3875 26.25 19.95 26.25 20.6375V25C26.25 25.6875 25.6875 26.25 25 26.25C13.2625 26.25 3.75 16.7375 3.75 5C3.75 4.3125 4.3125 3.75 5 3.75H9.375C10.0625 3.75 10.625 4.3125 10.625 5C10.625 6.5625 10.875 8.0625 11.3375 9.4625C11.475 9.9 11.375 10.3875 11.025 10.7375L8.275 13.4875Z" fill="#ECB647" style="mix-blend-mode:color"/>
</g>
<defs>
<filter id="filter0_iiii_313_832" x="3.25" y="3.25" width="23.5" height="23.5" filterUnits="userSpaceOnUse" color-interpolation-filters="sRGB">
<feFlood flood-opacity="0" result="BackgroundImageFix"/>
<feBlend mode="normal" in="SourceGraphic" in2="BackgroundImageFix" result="shape"/>
<feColorMatrix in="SourceAlpha" type="matrix" values="0 0 0 0 0 0 0 0 0 0 0 0 0 0 0 0 0 0 127 0" result="hardAlpha"/>
<feOffset dy="1"/>
<feGaussianBlur stdDeviation="0.25"/>
<feComposite in2="hardAlpha" operator="arithmetic" k2="-1" k3="1"/>
<feColorMatrix type="matrix" values="0 0 0 0 1 0 0 0 0 1 0 0 0 0 1 0 0 0 0.4 0"/>
<feBlend mode="normal" in2="shape" result="effect1_innerShadow_313_832"/>
<feColorMatrix in="SourceAlpha" type="matrix" values="0 0 0 0 0 0 0 0 0 0 0 0 0 0 0 0 0 0 127 0" result="hardAlpha"/>
<feOffset dy="-1"/>
<feGaussianBlur stdDeviation="0.25"/>
<feComposite in2="hardAlpha" operator="arithmetic" k2="-1" k3="1"/>
<feColorMatrix type="matrix" values="0 0 0 0 0 0 0 0 0 0 0 0 0 0 0 0 0 0 0.5 0"/>
<feBlend mode="normal" in2="effect1_innerShadow_313_832" result="effect2_innerShadow_313_832"/>
<feColorMatrix in="SourceAlpha" type="matrix" values="0 0 0 0 0 0 0 0 0 0 0 0 0 0 0 0 0 0 127 0" result="hardAlpha"/>
<feOffset dx="-1"/>
<feGaussianBlur stdDeviation="0.25"/>
<feComposite in2="hardAlpha" operator="arithmetic" k2="-1" k3="1"/>
<feColorMatrix type="matrix" values="0 0 0 0 0 0 0 0 0 0 0 0 0 0 0 0 0 0 0.3 0"/>
<feBlend mode="normal" in2="effect2_innerShadow_313_832" result="effect3_innerShadow_313_832"/>
<feColorMatrix in="SourceAlpha" type="matrix" values="0 0 0 0 0 0 0 0 0 0 0 0 0 0 0 0 0 0 127 0" result="hardAlpha"/>
<feOffset dx="1"/>
<feGaussianBlur stdDeviation="0.25"/>
<feComposite in2="hardAlpha" operator="arithmetic" k2="-1" k3="1"/>
<feColorMatrix type="matrix" values="0 0 0 0 1 0 0 0 0 1 0 0 0 0 1 0 0 0 0.25 0"/>
<feBlend mode="normal" in2="effect3_innerShadow_313_832" result="effect4_innerShadow_313_832"/>
</filter>
<linearGradient id="paint0_linear_313_832" x1="4.83173" y1="26.25" x2="26.8611" y2="25.3668" gradientUnits="userSpaceOnUse">
<stop stop-color="#657073"/>
<stop offset="0.099232" stop-color="#9EA1A1"/>
<stop offset="0.384706" stop-color="#A3AAA9"/>
<stop offset="0.481533" stop-color="#8A979A"/>
<stop offset="0.783332" stop-color="#727D81"/>
<stop offset="0.897573" stop-color="#848B8A"/>
<stop offset="1" stop-color="#8E9192"/>
</linearGradient>
<radialGradient id="paint1_radial_313_832" cx="0" cy="0" r="1" gradientUnits="userSpaceOnUse" gradientTransform="translate(5.74039 -10.3125) rotate(68.5297) scale(23.1704 78.3546)">
<stop stop-color="white"/>
<stop offset="1" stop-color="white" stop-opacity="0"/>
</radialGradient>
</defs>
</svg>
